<svg xmlns="http://www.w3.org/2000/svg" xmlns:xlink="http://www.w3.org/1999/xlink" width="500" zoomAndPan="magnify" viewBox="0 0 375 374.999991" height="500" preserveAspectRatio="xMidYMid meet" version="1.0"><defs><g/><radialGradient gradientTransform="matrix(1, 0, 0, 1, 0.0000045, 0)" gradientUnits="userSpaceOnUse" r="265.164751" cx="187.499996" id="fa734e063b" cy="187.499996" fx="187.499996" fy="187.499996"><stop stop-opacity="1" stop-color="rgb(99.867249%, 99.845886%, 100%)" offset="0"/><stop stop-opacity="1" stop-color="rgb(99.635315%, 99.577332%, 100%)" offset="0.015625"/><stop stop-opacity="1" stop-color="rgb(99.438477%, 99.34845%, 100%)" offset="0.0273438"/><stop stop-opacity="1" stop-color="rgb(99.240112%, 99.118042%, 100%)" offset="0.0390625"/><stop stop-opacity="1" stop-color="rgb(99.041748%, 98.88916%, 100%)" offset="0.0507812"/><stop stop-opacity="1" stop-color="rgb(98.843384%, 98.658752%, 100%)" offset="0.0625"/><stop stop-opacity="1" stop-color="rgb(98.64502%, 98.429871%, 100%)" offset="0.0742188"/><stop stop-opacity="1" stop-color="rgb(98.448181%, 98.199463%, 100%)" offset="0.0859375"/><stop stop-opacity="1" stop-color="rgb(98.249817%, 97.970581%, 100%)" offset="0.0976562"/><stop stop-opacity="1" stop-color="rgb(98.051453%, 97.740173%, 100%)" offset="0.109375"/><stop stop-opacity="1" stop-color="rgb(97.853088%, 97.511292%, 100%)" offset="0.121094"/><stop stop-opacity="1" stop-color="rgb(97.65625%, 97.280884%, 100%)" offset="0.132812"/><stop stop-opacity="1" stop-color="rgb(97.457886%, 97.050476%, 100%)" offset="0.144531"/><stop stop-opacity="1" stop-color="rgb(97.259521%, 96.821594%, 100%)" offset="0.15625"/><stop stop-opacity="1" stop-color="rgb(97.061157%, 96.591187%, 100%)" offset="0.167969"/><stop stop-opacity="1" stop-color="rgb(96.862793%, 96.362305%, 100%)" offset="0.179688"/><stop stop-opacity="1" stop-color="rgb(96.665955%, 96.131897%, 100%)" offset="0.191406"/><stop stop-opacity="1" stop-color="rgb(96.46759%, 95.903015%, 100%)" offset="0.203125"/><stop stop-opacity="1" stop-color="rgb(96.269226%, 95.672607%, 100%)" offset="0.214844"/><stop stop-opacity="1" stop-color="rgb(96.070862%, 95.443726%, 100%)" offset="0.226562"/><stop stop-opacity="1" stop-color="rgb(95.872498%, 95.213318%, 100%)" offset="0.238281"/><stop stop-opacity="1" stop-color="rgb(95.675659%, 94.984436%, 100%)" offset="0.25"/><stop stop-opacity="1" stop-color="rgb(95.410156%, 94.677734%, 100%)" offset="0.261719"/><stop stop-opacity="1" stop-color="rgb(95.080566%, 94.294739%, 100%)" offset="0.28125"/><stop stop-opacity="1" stop-color="rgb(94.750977%, 93.911743%, 100%)" offset="0.300781"/><stop stop-opacity="1" stop-color="rgb(94.421387%, 93.528748%, 100%)" offset="0.320312"/><stop stop-opacity="1" stop-color="rgb(94.090271%, 93.145752%, 100%)" offset="0.339844"/><stop stop-opacity="1" stop-color="rgb(93.760681%, 92.762756%, 100%)" offset="0.359375"/><stop stop-opacity="1" stop-color="rgb(93.463135%, 92.419434%, 100%)" offset="0.378906"/><stop stop-opacity="1" stop-color="rgb(93.199158%, 92.112732%, 100%)" offset="0.394531"/><stop stop-opacity="1" stop-color="rgb(92.935181%, 91.80603%, 100%)" offset="0.410156"/><stop stop-opacity="1" stop-color="rgb(92.671204%, 91.500854%, 100%)" offset="0.425781"/><stop stop-opacity="1" stop-color="rgb(92.407227%, 91.194153%, 100%)" offset="0.441406"/><stop stop-opacity="1" stop-color="rgb(92.14325%, 90.887451%, 100%)" offset="0.457031"/><stop stop-opacity="1" stop-color="rgb(91.879272%, 90.582275%, 100%)" offset="0.472656"/><stop stop-opacity="1" stop-color="rgb(91.615295%, 90.275574%, 100%)" offset="0.488281"/><stop stop-opacity="1" stop-color="rgb(91.383362%, 90.007019%, 100%)" offset="0.503906"/><stop stop-opacity="1" stop-color="rgb(91.186523%, 89.778137%, 100%)" offset="0.515625"/><stop stop-opacity="1" stop-color="rgb(90.988159%, 89.547729%, 100%)" offset="0.527344"/><stop stop-opacity="1" stop-color="rgb(90.789795%, 89.318848%, 100%)" offset="0.539062"/><stop stop-opacity="1" stop-color="rgb(90.591431%, 89.08844%, 100%)" offset="0.550781"/><stop stop-opacity="1" stop-color="rgb(90.393066%, 88.859558%, 100%)" offset="0.5625"/><stop stop-opacity="1" stop-color="rgb(90.196228%, 88.62915%, 100%)" offset="0.574219"/><stop stop-opacity="1" stop-color="rgb(89.997864%, 88.400269%, 100%)" offset="0.585938"/><stop stop-opacity="1" stop-color="rgb(89.7995%, 88.169861%, 100%)" offset="0.597656"/><stop stop-opacity="1" stop-color="rgb(89.601135%, 87.940979%, 100%)" offset="0.609375"/><stop stop-opacity="1" stop-color="rgb(89.404297%, 87.710571%, 100%)" offset="0.621094"/><stop stop-opacity="1" stop-color="rgb(89.138794%, 87.40387%, 100%)" offset="0.632812"/><stop stop-opacity="1" stop-color="rgb(88.809204%, 87.020874%, 100%)" offset="0.652344"/><stop stop-opacity="1" stop-color="rgb(88.479614%, 86.637878%, 100%)" offset="0.671875"/><stop stop-opacity="1" stop-color="rgb(88.182068%, 86.294556%, 100%)" offset="0.691406"/><stop stop-opacity="1" stop-color="rgb(87.918091%, 85.987854%, 100%)" offset="0.707031"/><stop stop-opacity="1" stop-color="rgb(87.654114%, 85.681152%, 100%)" offset="0.722656"/><stop stop-opacity="1" stop-color="rgb(87.390137%, 85.375977%, 100%)" offset="0.738281"/><stop stop-opacity="1" stop-color="rgb(87.159729%, 85.107422%, 100%)" offset="0.753906"/><stop stop-opacity="1" stop-color="rgb(86.961365%, 84.877014%, 100%)" offset="0.765625"/><stop stop-opacity="1" stop-color="rgb(86.763%, 84.648132%, 100%)" offset="0.777344"/><stop stop-opacity="1" stop-color="rgb(86.564636%, 84.417725%, 100%)" offset="0.789062"/><stop stop-opacity="1" stop-color="rgb(86.366272%, 84.188843%, 100%)" offset="0.800781"/><stop stop-opacity="1" stop-color="rgb(86.169434%, 83.958435%, 100%)" offset="0.8125"/><stop stop-opacity="1" stop-color="rgb(85.903931%, 83.651733%, 100%)" offset="0.824219"/><stop stop-opacity="1" stop-color="rgb(85.574341%, 83.270264%, 100%)" offset="0.84375"/><stop stop-opacity="1" stop-color="rgb(85.276794%, 82.925415%, 100%)" offset="0.863281"/><stop stop-opacity="1" stop-color="rgb(85.046387%, 82.65686%, 100%)" offset="0.878906"/><stop stop-opacity="1" stop-color="rgb(84.848022%, 82.427979%, 100%)" offset="0.890625"/><stop stop-opacity="1" stop-color="rgb(84.651184%, 82.197571%, 100%)" offset="0.902344"/><stop stop-opacity="1" stop-color="rgb(84.385681%, 81.890869%, 100%)" offset="0.914062"/><stop stop-opacity="1" stop-color="rgb(84.088135%, 81.547546%, 100%)" offset="0.933594"/><stop stop-opacity="1" stop-color="rgb(83.857727%, 81.278992%, 100%)" offset="0.949219"/><stop stop-opacity="1" stop-color="rgb(83.59375%, 80.97229%, 100%)" offset="0.960938"/><stop stop-opacity="1" stop-color="rgb(83.26416%, 80.589294%, 100%)" offset="0.980469"/><stop stop-opacity="1" stop-color="rgb(83.099365%, 80.39856%, 100%)" offset="1"/></radialGradient></defs><rect x="-37.5" width="450" fill="#ffffff" y="-37.499999" height="449.999989" fill-opacity="1"/><rect x="-37.5" fill="url(#fa734e063b)" width="450" y="-37.499999" height="449.999989"/><g fill="#000000" fill-opacity="1"><g transform="translate(76.582574, 211.87312)"><g><path d="M 66.203125 -61.25 L 29.8125 -13.484375 L 55.484375 -13.484375 L 53.375 0 L 0.890625 0 L 37.453125 -47.765625 L 13.40625 -47.765625 L 15.515625 -61.25 Z M 66.203125 -61.25 "/></g></g></g><g fill="#000000" fill-opacity="1"><g transform="translate(125.404391, 211.87312)"><g><path d="M 75.296875 -36.5625 C 75.296875 -30.65625 73.585938 -24.53125 70.171875 -18.1875 C 66.765625 -11.851562 61.945312 -6.898438 55.71875 -3.328125 C 49.5 0.242188 42.8125 2.03125 35.65625 2.03125 C 27.050781 2.03125 20.066406 -0.5 14.703125 -5.5625 C 9.335938 -10.625 6.65625 -17.300781 6.65625 -25.59375 C 6.65625 -32.414062 8.457031 -38.707031 12.0625 -44.46875 C 15.664062 -50.238281 20.566406 -54.816406 26.765625 -58.203125 C 32.960938 -61.585938 39.367188 -63.28125 45.984375 -63.28125 C 51.234375 -63.28125 56.144531 -62.140625 60.71875 -59.859375 C 65.300781 -57.585938 68.875 -54.4375 71.4375 -50.40625 C 74.007812 -46.375 75.296875 -41.757812 75.296875 -36.5625 Z M 38.09375 -13.40625 C 41.78125 -13.40625 45.179688 -14.421875 48.296875 -16.453125 C 51.410156 -18.484375 53.882812 -21.109375 55.71875 -24.328125 C 57.5625 -27.546875 58.484375 -30.726562 58.484375 -33.875 C 58.484375 -37.769531 57.007812 -41.070312 54.0625 -43.78125 C 51.113281 -46.488281 47.578125 -47.84375 43.453125 -47.84375 C 40.265625 -47.84375 37.097656 -46.972656 33.953125 -45.234375 C 30.816406 -43.503906 28.285156 -41.175781 26.359375 -38.25 C 24.441406 -35.332031 23.484375 -32.085938 23.484375 -28.515625 C 23.484375 -24.128906 24.847656 -20.515625 27.578125 -17.671875 C 30.316406 -14.828125 33.820312 -13.40625 38.09375 -13.40625 Z M 38.09375 -13.40625 "/></g></g></g><path stroke-linecap="butt" transform="matrix(1.523321, 0, 0, 1.523321, 177.53683, 131.137124)" fill="none" stroke-linejoin="miter" d="M 43.461209 12.793023 L 19.569633 44.146709 L 36.4299 44.146709 L 35.037486 53.001234 L 0.586126 53.001234 L 24.582838 21.647548 L 8.802141 21.647548 L 10.181734 12.793023 Z M 81.487202 29.004522 C 81.487202 32.876614 80.366603 36.894871 78.12797 41.061857 C 75.886772 45.218586 72.724991 48.470117 68.634934 50.813887 C 64.547441 53.155092 60.154797 54.326977 55.459565 54.326977 C 49.807849 54.326977 45.220318 52.665311 41.696971 49.341979 C 38.181317 46.016083 36.424772 41.638824 36.424772 36.205074 C 36.424772 31.725244 37.604349 27.594158 39.966069 23.809252 C 42.335481 20.016653 45.556241 17.00873 49.625784 14.785483 C 53.697891 12.5648 57.898213 11.451894 62.229315 11.451894 C 65.683426 11.451894 68.914443 12.200669 71.917237 13.693092 C 74.920031 15.185514 77.263801 17.260032 78.948545 19.916646 C 80.640983 22.563003 81.487202 25.594004 81.487202 29.004522 Z M 57.062252 44.197995 C 59.48295 44.197995 61.71389 43.533841 63.752508 42.205534 C 65.801383 40.869535 67.429713 39.146326 68.634934 37.038472 C 69.842719 34.92036 70.445329 32.827892 70.445329 30.761067 C 70.445329 28.201897 69.478588 26.029935 67.542543 24.252876 C 65.606497 22.473252 63.285806 21.58344 60.575342 21.58344 C 58.485438 21.58344 56.405791 22.155279 54.338966 23.301521 C 52.282398 24.437505 50.620732 25.965828 49.353968 27.883923 C 48.094897 29.802019 47.46408 31.932952 47.46408 34.276721 C 47.46408 37.158994 48.35902 39.533535 50.146337 41.400345 C 51.943911 43.26459 54.249215 44.197995 57.062252 44.197995 Z M 57.062252 44.197995 " stroke="#000000" stroke-width="5.399997" stroke-opacity="1" stroke-miterlimit="4"/><g fill="#ffffff" fill-opacity="1"><g transform="translate(177.53683, 211.87312)"><g><path d="M 66.203125 -61.25 L 29.8125 -13.484375 L 55.484375 -13.484375 L 53.375 0 L 0.890625 0 L 37.453125 -47.765625 L 13.40625 -47.765625 L 15.515625 -61.25 Z M 66.203125 -61.25 "/></g></g></g><g fill="#ffffff" fill-opacity="1"><g transform="translate(226.358646, 211.87312)"><g><path d="M 75.296875 -36.5625 C 75.296875 -30.65625 73.585938 -24.53125 70.171875 -18.1875 C 66.765625 -11.851562 61.945312 -6.898438 55.71875 -3.328125 C 49.5 0.242188 42.8125 2.03125 35.65625 2.03125 C 27.050781 2.03125 20.066406 -0.5 14.703125 -5.5625 C 9.335938 -10.625 6.65625 -17.300781 6.65625 -25.59375 C 6.65625 -32.414062 8.457031 -38.707031 12.0625 -44.46875 C 15.664062 -50.238281 20.566406 -54.816406 26.765625 -58.203125 C 32.960938 -61.585938 39.367188 -63.28125 45.984375 -63.28125 C 51.234375 -63.28125 56.144531 -62.140625 60.71875 -59.859375 C 65.300781 -57.585938 68.875 -54.4375 71.4375 -50.40625 C 74.007812 -46.375 75.296875 -41.757812 75.296875 -36.5625 Z M 38.09375 -13.40625 C 41.78125 -13.40625 45.179688 -14.421875 48.296875 -16.453125 C 51.410156 -18.484375 53.882812 -21.109375 55.71875 -24.328125 C 57.5625 -27.546875 58.484375 -30.726562 58.484375 -33.875 C 58.484375 -37.769531 57.007812 -41.070312 54.0625 -43.78125 C 51.113281 -46.488281 47.578125 -47.84375 43.453125 -47.84375 C 40.265625 -47.84375 37.097656 -46.972656 33.953125 -45.234375 C 30.816406 -43.503906 28.285156 -41.175781 26.359375 -38.25 C 24.441406 -35.332031 23.484375 -32.085938 23.484375 -28.515625 C 23.484375 -24.128906 24.847656 -20.515625 27.578125 -17.671875 C 30.316406 -14.828125 33.820312 -13.40625 38.09375 -13.40625 Z M 38.09375 -13.40625 "/></g></g></g></svg>